<svg class="" xmlns="http://www.w3.org/2000/svg" viewBox="0 0 35 35"><linearGradient id="07367835347115279" gradientUnits="userSpaceOnUse" x1="11.173" y1="15.797" x2="11.173" y2="32.367"><stop offset="0" stop-color="#c7b586"/><stop offset=".107" stop-color="#bdaa7a"/><stop offset=".495" stop-color="#9d8654"/><stop offset=".806" stop-color="#896f3d"/><stop offset="1" stop-color="#826734"/></linearGradient><path d="M15.3 23.5l-3.5-4c-.7-.8-1.3-.1-1.3-.1-.5.5 0 1.2 0 1.2l2 2.6c.3.3-.1.6-.1.6-2.3-.3-3.3-1.7-3.8-3.4-.3-.9-.3-2.8-.3-2.8 0-1.7-1-1.8-1.7-1.7-.3 0-.5.3-.5.5v4.8c.4 5.6 3.7 7.6 5 8.2.3.1.5.4.5.7v1.5c0 .4.4.8.8.8h2.8c.4 0 .8-.4.8-.8v-6.1c0-.8-.2-1.4-.7-2z" fill="url(#07367835347115279)"/><linearGradient id="042878078598028213" gradientUnits="userSpaceOnUse" x1="24.587" y1="15.797" x2="24.587" y2="32.367"><stop offset="0" stop-color="#c7b586"/><stop offset=".107" stop-color="#bdaa7a"/><stop offset=".495" stop-color="#9d8654"/><stop offset=".806" stop-color="#896f3d"/><stop offset="1" stop-color="#826734"/></linearGradient><path d="M29 15.8c-.6-.1-1.6 0-1.7 1.7 0 0 0 2-.3 2.8-.6 1.8-1.6 3.1-3.8 3.4 0 0-.4-.2-.1-.6l2-2.6s.6-.7 0-1.2c0 0-.6-.6-1.3.1l-3.5 4c-.5.5-.7 1.2-.7 1.9v6.1c0 .4.4.8.8.8h2.8c.4 0 .8-.4.8-.8v-1.5c0-.3.2-.6.5-.7 1.3-.6 4.6-2.6 5-8.2v-4.8c0-.1-.2-.3-.5-.4z" fill="url(#042878078598028213)"/><linearGradient id="08993028660217242" gradientUnits="userSpaceOnUse" x1="17.88" y1="2.633" x2="17.88" y2="23.477"><stop offset="0" stop-color="#c7b586"/><stop offset=".377" stop-color="#c5b384"/><stop offset=".564" stop-color="#bfac7c"/><stop offset=".709" stop-color="#b49f6f"/><stop offset=".833" stop-color="#a48d5c"/><stop offset=".942" stop-color="#907744"/><stop offset="1" stop-color="#826734"/></linearGradient><path d="M26.3 14.1h-.9c-.2-.4-.5-.6-1-.6h-4.8v-1.2c1.9-.7 3.2-2.5 3.2-4.7 0-2.8-2.2-5-5-5s-5 2.2-5 5c0 2.1 1.3 3.9 3.2 4.7v1.2h-4.8c-.4 0-.8.3-1 .6h-.8v.5l8.4 8.9 8.4-8.9v-.5z" fill="url(#08993028660217242)"/></svg>